<svg xmlns="http://www.w3.org/2000/svg" xmlns:xlink="http://www.w3.org/1999/xlink" width="500" zoomAndPan="magnify" viewBox="0 0 375 374.999991" height="500" preserveAspectRatio="xMidYMid meet" version="1.0"><defs><clipPath id="22e16d720e"><path d="M 35 16.171875 L 305 16.171875 L 305 171 L 35 171 Z M 35 16.171875 " clip-rule="nonzero"/></clipPath></defs><path fill="#1743c0" d="M 360.851562 211.875 L 375.417969 186.726562 L 304.308594 63.84375 L 258.859375 142.808594 C 257.464844 142.546875 256.039062 142.375 254.582031 142.375 C 241.765625 142.375 231.335938 152.804688 231.335938 165.621094 C 231.335938 178.433594 241.765625 188.863281 254.582031 188.863281 C 256.039062 188.863281 257.464844 188.691406 258.859375 188.429688 L 307.761719 272.882812 L 285.589844 311.265625 C 276.199219 309.546875 266.328125 313.714844 261.277344 322.453125 C 254.890625 333.546875 258.703125 347.789062 269.796875 354.1875 C 273.441406 356.3125 277.4375 357.304688 281.375 357.304688 C 289.433594 357.304688 297.242188 353.121094 301.550781 345.683594 C 306.601562 336.941406 305.238281 326.296875 299.023438 319.011719 L 325.691406 272.898438 L 272.230469 180.605469 C 275.671875 176.542969 277.839844 171.367188 277.839844 165.636719 C 277.839844 159.902344 275.6875 154.726562 272.230469 150.683594 L 304.355469 94.851562 L 357.519531 186.742188 L 347.417969 204.171875 C 342.148438 203.199219 336.554688 203.910156 331.582031 206.808594 C 320.46875 213.222656 316.671875 227.480469 323.089844 238.574219 C 327.398438 245.996094 335.222656 250.164062 343.265625 250.164062 C 347.214844 250.164062 351.214844 249.171875 354.855469 247.050781 C 365.949219 240.636719 369.746094 226.394531 363.332031 215.300781 C 362.617188 214.058594 361.765625 212.945312 360.867188 211.890625 Z M 288.128906 337.933594 C 285.976562 341.621094 281.203125 342.863281 277.53125 340.785156 C 273.84375 338.648438 272.574219 333.890625 274.679688 330.1875 C 276.121094 327.707031 278.738281 326.3125 281.421875 326.3125 C 282.738281 326.3125 284.070312 326.636719 285.277344 327.335938 C 288.980469 329.488281 290.253906 334.214844 288.128906 337.933594 Z M 246.832031 165.636719 C 246.832031 161.375 250.320312 157.886719 254.582031 157.886719 C 258.84375 157.886719 262.328125 161.375 262.328125 165.636719 C 262.328125 169.898438 258.84375 173.382812 254.582031 173.382812 C 250.320312 173.382812 246.832031 169.898438 246.832031 165.636719 Z M 350.671875 228.921875 C 350.144531 230.917969 348.875 232.578125 347.09375 233.632812 C 343.355469 235.722656 338.617188 234.484375 336.476562 230.796875 C 334.339844 227.09375 335.609375 222.351562 339.3125 220.195312 C 340.539062 219.5 341.871094 219.171875 343.1875 219.171875 C 345.867188 219.171875 348.472656 220.550781 349.914062 223.03125 C 350.933594 224.828125 351.230469 226.921875 350.6875 228.921875 Z M 350.671875 228.921875 " fill-opacity="1" fill-rule="nonzero"/><g clip-path="url(#22e16d720e)"><path fill="#277df1" d="M 148.914062 170.207031 C 161.730469 170.207031 172.160156 159.777344 172.160156 146.960938 C 172.160156 141.214844 169.972656 136.007812 166.503906 131.949219 L 215.191406 47.261719 L 259.585938 47.261719 C 262.792969 56.265625 271.316406 62.757812 281.40625 62.757812 C 294.21875 62.757812 304.648438 52.328125 304.648438 39.515625 C 304.648438 26.699219 294.21875 16.269531 281.40625 16.269531 C 271.316406 16.269531 262.792969 22.761719 259.585938 31.765625 L 206.234375 31.765625 L 153.113281 124.136719 C 151.75 123.890625 150.339844 123.71875 148.898438 123.71875 C 138.828125 123.71875 130.320312 130.195312 127.097656 139.167969 L 62.835938 139.167969 L 115.878906 47.261719 L 136.085938 47.261719 C 137.945312 52.46875 141.292969 56.949219 146.125 59.722656 C 149.691406 61.796875 153.671875 62.851562 157.703125 62.851562 C 159.714844 62.851562 161.761719 62.574219 163.761719 62.046875 C 169.773438 60.433594 174.777344 56.558594 177.878906 51.183594 C 184.261719 40.074219 180.433594 25.847656 169.339844 19.460938 C 163.960938 16.347656 157.6875 15.527344 151.703125 17.136719 C 145.691406 18.75 140.6875 22.625 137.601562 27.984375 C 136.890625 29.195312 136.347656 30.480469 135.882812 31.765625 L 106.921875 31.765625 L 35.996094 154.664062 L 127.097656 154.664062 C 130.289062 163.683594 138.828125 170.207031 148.929688 170.207031 Z M 281.40625 31.765625 C 285.667969 31.765625 289.152344 35.253906 289.152344 39.515625 C 289.152344 43.777344 285.667969 47.261719 281.40625 47.261719 C 277.144531 47.261719 273.65625 43.777344 273.65625 39.515625 C 273.65625 35.253906 277.144531 31.765625 281.40625 31.765625 Z M 151.023438 35.71875 C 152.046875 33.9375 153.71875 32.648438 155.71875 32.109375 C 156.382812 31.9375 157.066406 31.84375 157.746094 31.84375 C 159.082031 31.84375 160.398438 32.183594 161.589844 32.867188 C 163.371094 33.90625 164.660156 35.578125 165.1875 37.578125 C 165.726562 39.578125 165.449219 41.667969 164.410156 43.464844 C 163.386719 45.246094 161.714844 46.535156 159.714844 47.078125 C 157.703125 47.585938 155.625 47.339844 153.828125 46.285156 C 152.046875 45.261719 150.757812 43.589844 150.21875 41.589844 C 149.691406 39.59375 149.953125 37.5 151.007812 35.703125 Z M 148.914062 139.214844 C 153.175781 139.214844 156.664062 142.703125 156.664062 146.960938 C 156.664062 151.222656 153.175781 154.710938 148.914062 154.710938 C 144.652344 154.710938 141.167969 151.222656 141.167969 146.960938 C 141.167969 142.703125 144.652344 139.214844 148.914062 139.214844 Z M 148.914062 139.214844 " fill-opacity="1" fill-rule="nonzero"/></g><path fill="#5ce1e6" d="M 208.882812 247.792969 C 208.882812 234.980469 198.457031 224.550781 185.640625 224.550781 C 175.550781 224.550781 167.03125 231.042969 163.824219 240.046875 L 66.121094 240.1875 L 43.945312 201.816406 C 50.144531 194.535156 51.523438 183.90625 46.472656 175.164062 C 40.085938 164.085938 25.847656 160.289062 14.738281 166.640625 C 3.640625 173.058594 -0.171875 187.296875 6.230469 198.410156 C 10.523438 205.847656 18.347656 210.03125 26.40625 210.03125 C 27.785156 210.03125 29.148438 209.753906 30.511719 209.503906 L 57.210938 255.695312 L 163.835938 255.558594 C 167.046875 264.5625 175.566406 271.054688 185.65625 271.054688 C 187.113281 271.054688 188.523438 270.882812 189.917969 270.621094 L 221.992188 326.359375 L 115.878906 326.359375 L 105.804688 308.957031 C 109.308594 304.882812 111.507812 299.644531 111.507812 293.847656 C 111.507812 281.046875 101.046875 270.636719 88.234375 270.636719 C 75.417969 270.667969 65.003906 281.09375 65.019531 293.910156 C 65.019531 300.109375 67.4375 305.949219 71.824219 310.335938 C 76.207031 314.722656 82.035156 317.121094 88.234375 317.121094 L 88.28125 317.121094 C 89.691406 317.121094 91.039062 316.953125 92.386719 316.703125 L 106.953125 341.855469 L 248.769531 341.855469 L 203.273438 262.777344 C 206.730469 258.71875 208.882812 253.527344 208.882812 247.808594 Z M 19.632812 190.675781 C 17.496094 186.972656 18.765625 182.214844 22.46875 180.078125 C 26.109375 177.890625 30.914062 179.195312 33.066406 182.914062 C 35.207031 186.601562 33.9375 191.359375 30.21875 193.511719 C 26.542969 195.621094 21.757812 194.363281 19.632812 190.675781 Z M 88.25 301.613281 C 86.1875 301.613281 84.234375 300.804688 82.777344 299.347656 C 81.308594 297.878906 80.515625 295.941406 80.515625 293.863281 C 80.515625 289.585938 83.988281 286.101562 88.25 286.101562 C 92.511719 286.101562 95.996094 289.585938 96.011719 293.832031 C 96.011719 298.109375 92.542969 301.597656 88.265625 301.597656 Z M 177.890625 247.792969 C 177.890625 243.53125 181.378906 240.046875 185.640625 240.046875 C 189.902344 240.046875 193.386719 243.53125 193.386719 247.792969 C 193.386719 252.054688 189.902344 255.542969 185.640625 255.542969 C 181.378906 255.542969 177.890625 252.054688 177.890625 247.792969 Z M 177.890625 247.792969 " fill-opacity="1" fill-rule="nonzero"/></svg>