<svg xmlns="http://www.w3.org/2000/svg" xmlns:xlink="http://www.w3.org/1999/xlink" width="500" zoomAndPan="magnify" viewBox="0 0 375 374.999991" height="500" preserveAspectRatio="xMidYMid meet" version="1.0"><defs><g/></defs><g fill="#022179" fill-opacity="1"><g transform="translate(2.108848, 201.749987)"><g><path d="M 19.65625 -37.46875 C 18.082031 -37.46875 16.882812 -37.328125 16.0625 -37.046875 C 15.25 -36.765625 14.671875 -36.257812 14.328125 -35.53125 C 13.992188 -34.800781 13.828125 -33.75 13.828125 -32.375 L 13.828125 -5.59375 C 13.828125 -4.332031 14.03125 -3.375 14.4375 -2.71875 C 14.851562 -2.0625 15.472656 -1.617188 16.296875 -1.390625 C 17.117188 -1.171875 18.238281 -1.046875 19.65625 -1.015625 L 19.65625 0 L 1.953125 0 L 1.953125 -1.015625 C 3.453125 -1.046875 4.601562 -1.171875 5.40625 -1.390625 C 6.207031 -1.617188 6.800781 -2.0625 7.1875 -2.71875 C 7.582031 -3.375 7.78125 -4.351562 7.78125 -5.65625 L 7.78125 -32.375 C 7.78125 -33.75 7.601562 -34.789062 7.25 -35.5 C 6.894531 -36.207031 6.316406 -36.703125 5.515625 -36.984375 C 4.710938 -37.265625 3.523438 -37.425781 1.953125 -37.46875 L 1.953125 -38.46875 L 19.65625 -38.46875 Z M 19.65625 -37.46875 "/></g></g></g><g fill="#022179" fill-opacity="1"><g transform="translate(24.953843, 201.749987)"><g><path d="M 36.796875 -10.078125 L 36.796875 -33.15625 C 36.796875 -34.832031 36.492188 -35.957031 35.890625 -36.53125 C 35.296875 -37.113281 34.195312 -37.425781 32.59375 -37.46875 L 31.1875 -37.46875 L 31.1875 -38.46875 L 45.359375 -38.46875 L 45.359375 -37.46875 L 44.1875 -37.46875 C 42.6875 -37.46875 41.617188 -37.375 40.984375 -37.1875 C 40.359375 -37 39.921875 -36.554688 39.671875 -35.859375 C 39.429688 -35.171875 39.3125 -34.046875 39.3125 -32.484375 L 39.3125 0.453125 L 38.53125 0.453125 L 11.03125 -30.515625 L 11.03125 -6.5 C 11.03125 -4.40625 11.445312 -2.96875 12.28125 -2.1875 C 13.125 -1.40625 14.570312 -1.015625 16.625 -1.015625 L 16.625 0 L 2.75 0 L 2.75 -1.015625 L 3.078125 -1.015625 C 4.867188 -1.015625 6.226562 -1.335938 7.15625 -1.984375 C 8.09375 -2.640625 8.5625 -3.84375 8.5625 -5.59375 L 8.5625 -32.984375 C 7.59375 -34.628906 6.492188 -35.785156 5.265625 -36.453125 C 4.035156 -37.128906 2.523438 -37.46875 0.734375 -37.46875 L 0.734375 -38.46875 L 11.921875 -38.46875 Z M 36.796875 -10.078125 "/></g></g></g><g fill="#022179" fill-opacity="1"><g transform="translate(72.323411, 201.749987)"><g><path d="M 35.453125 -30.1875 L 34.390625 -30.1875 C 34.117188 -32.351562 33.320312 -33.957031 32 -35 C 30.675781 -36.039062 28.671875 -36.5625 25.984375 -36.5625 L 13.828125 -36.5625 L 13.828125 -21.390625 L 23.359375 -21.390625 C 25.367188 -21.390625 26.773438 -21.753906 27.578125 -22.484375 C 28.378906 -23.210938 28.78125 -24.359375 28.78125 -25.921875 L 28.78125 -26.828125 L 29.796875 -26.828125 L 29.796875 -13.71875 L 28.78125 -13.71875 L 28.78125 -14.390625 C 28.78125 -16.035156 28.390625 -17.238281 27.609375 -18 C 26.828125 -18.769531 25.59375 -19.15625 23.90625 -19.15625 L 13.828125 -19.15625 L 13.828125 -5.59375 C 13.828125 -3.800781 14.273438 -2.585938 15.171875 -1.953125 C 16.066406 -1.328125 17.46875 -1.015625 19.375 -1.015625 L 19.375 0 L 2.40625 0 L 2.40625 -1.015625 L 2.75 -1.015625 C 4.425781 -1.015625 5.679688 -1.359375 6.515625 -2.046875 C 7.359375 -2.734375 7.78125 -3.9375 7.78125 -5.65625 L 7.78125 -33.09375 C 7.78125 -34.664062 7.347656 -35.785156 6.484375 -36.453125 C 5.628906 -37.128906 4.269531 -37.46875 2.40625 -37.46875 L 2.40625 -38.46875 L 35.0625 -38.46875 Z M 35.453125 -30.1875 "/></g></g></g><g fill="#022179" fill-opacity="1"><g transform="translate(110.958199, 201.749987)"><g><path d="M 33.15625 -28.453125 C 33.15625 -26.097656 32.351562 -24.070312 30.75 -22.375 C 29.144531 -20.675781 26.695312 -19.414062 23.40625 -18.59375 L 32.3125 -7.5625 C 33.394531 -6.21875 34.304688 -5.144531 35.046875 -4.34375 C 35.796875 -3.539062 36.722656 -2.8125 37.828125 -2.15625 C 38.929688 -1.5 40.15625 -1.117188 41.5 -1.015625 L 41.5 0 L 31.46875 0 L 16.96875 -18.03125 L 13.265625 -18.03125 L 13.265625 -5.546875 C 13.265625 -3.898438 13.6875 -2.734375 14.53125 -2.046875 C 15.375 -1.359375 16.691406 -1.015625 18.484375 -1.015625 L 18.703125 -1.015625 L 18.703125 0 L 1.90625 0 L 1.90625 -1.015625 C 3.695312 -1.015625 5.03125 -1.328125 5.90625 -1.953125 C 6.78125 -2.585938 7.21875 -3.726562 7.21875 -5.375 L 7.21875 -33.203125 C 7.21875 -34.703125 6.78125 -35.785156 5.90625 -36.453125 C 5.03125 -37.128906 3.695312 -37.46875 1.90625 -37.46875 L 1.90625 -38.46875 L 19.875 -38.46875 C 23.539062 -38.46875 26.671875 -37.644531 29.265625 -36 C 31.859375 -34.363281 33.15625 -31.847656 33.15625 -28.453125 Z M 13.265625 -35.5 L 13.265625 -19.9375 L 14.671875 -19.9375 C 18.441406 -19.9375 21.296875 -20.671875 23.234375 -22.140625 C 25.179688 -23.617188 26.15625 -25.664062 26.15625 -28.28125 C 26.15625 -30.5625 25.414062 -32.503906 23.9375 -34.109375 C 22.46875 -35.710938 20.390625 -36.515625 17.703125 -36.515625 C 16.242188 -36.515625 14.765625 -36.175781 13.265625 -35.5 Z M 13.265625 -35.5 "/></g></g></g><g fill="#022179" fill-opacity="1"><g transform="translate(155.41617, 201.749987)"><g><path d="M 6.4375 -7.453125 L 20.78125 -40.15625 L 21.78125 -40.15625 L 36.90625 -5.3125 C 37.46875 -4.050781 38 -3.109375 38.5 -2.484375 C 39 -1.867188 39.53125 -1.46875 40.09375 -1.28125 C 40.65625 -1.101562 41.421875 -1.015625 42.390625 -1.015625 L 42.390625 0 L 26.59375 0 L 26.59375 -1.015625 C 27.9375 -1.015625 28.941406 -1.253906 29.609375 -1.734375 C 30.285156 -2.222656 30.625 -2.878906 30.625 -3.703125 C 30.625 -4.410156 30.382812 -5.285156 29.90625 -6.328125 L 26.984375 -12.9375 L 11.484375 -12.9375 L 8.28125 -5.59375 C 7.914062 -4.851562 7.734375 -4.179688 7.734375 -3.578125 C 7.734375 -1.867188 9.113281 -1.015625 11.875 -1.015625 L 11.875 0 L 0.78125 0 L 0.78125 -1.015625 C 1.71875 -1.117188 2.472656 -1.382812 3.046875 -1.8125 C 3.628906 -2.25 4.148438 -2.875 4.609375 -3.6875 C 5.078125 -4.507812 5.6875 -5.765625 6.4375 -7.453125 Z M 26.09375 -15.0625 L 19.265625 -30.6875 L 12.4375 -15.0625 Z M 26.09375 -15.0625 "/></g></g></g><g fill="#022179" fill-opacity="1"><g transform="translate(199.87414, 201.749987)"><g><path d="M 27.828125 -9.078125 L 41.328125 -38.46875 L 53.03125 -38.46875 L 53.03125 -37.46875 L 52.640625 -37.46875 C 50.847656 -37.46875 49.519531 -37.148438 48.65625 -36.515625 C 47.800781 -35.878906 47.375 -34.664062 47.375 -32.875 L 47.375 -5.546875 C 47.375 -3.898438 47.785156 -2.734375 48.609375 -2.046875 C 49.429688 -1.359375 50.8125 -1.015625 52.75 -1.015625 L 53.03125 -1.015625 L 53.03125 0 L 35.671875 0 L 35.671875 -1.015625 L 36.171875 -1.015625 C 37.929688 -1.015625 39.226562 -1.359375 40.0625 -2.046875 C 40.90625 -2.734375 41.328125 -3.9375 41.328125 -5.65625 L 41.328125 -32.25 L 41.21875 -32.25 L 26.4375 0 L 25.421875 0 L 10.640625 -32.25 L 10.53125 -32.25 L 10.53125 -5.59375 C 10.53125 -3.800781 10.9375 -2.597656 11.75 -1.984375 C 12.570312 -1.367188 13.957031 -1.046875 15.90625 -1.015625 L 15.90625 0 L 2.40625 0 L 2.40625 -1.015625 L 2.75 -1.015625 C 4.539062 -1.015625 5.863281 -1.335938 6.71875 -1.984375 C 7.582031 -2.640625 8.015625 -3.863281 8.015625 -5.65625 L 8.015625 -31.921875 C 8.015625 -33.671875 7.5625 -34.984375 6.65625 -35.859375 C 5.757812 -36.742188 4.34375 -37.28125 2.40625 -37.46875 L 2.40625 -38.46875 L 14.171875 -38.46875 Z M 27.828125 -9.078125 "/></g></g></g><g fill="#022179" fill-opacity="1"><g transform="translate(256.594397, 201.749987)"><g><path d="M 19.65625 -37.46875 C 18.082031 -37.46875 16.882812 -37.328125 16.0625 -37.046875 C 15.25 -36.765625 14.671875 -36.257812 14.328125 -35.53125 C 13.992188 -34.800781 13.828125 -33.75 13.828125 -32.375 L 13.828125 -5.59375 C 13.828125 -4.332031 14.03125 -3.375 14.4375 -2.71875 C 14.851562 -2.0625 15.472656 -1.617188 16.296875 -1.390625 C 17.117188 -1.171875 18.238281 -1.046875 19.65625 -1.015625 L 19.65625 0 L 1.953125 0 L 1.953125 -1.015625 C 3.453125 -1.046875 4.601562 -1.171875 5.40625 -1.390625 C 6.207031 -1.617188 6.800781 -2.0625 7.1875 -2.71875 C 7.582031 -3.375 7.78125 -4.351562 7.78125 -5.65625 L 7.78125 -32.375 C 7.78125 -33.75 7.601562 -34.789062 7.25 -35.5 C 6.894531 -36.207031 6.316406 -36.703125 5.515625 -36.984375 C 4.710938 -37.265625 3.523438 -37.425781 1.953125 -37.46875 L 1.953125 -38.46875 L 19.65625 -38.46875 Z M 19.65625 -37.46875 "/></g></g></g><g fill="#022179" fill-opacity="1"><g transform="translate(279.439389, 201.749987)"><g><path d="M 36.796875 -10.078125 L 36.796875 -33.15625 C 36.796875 -34.832031 36.492188 -35.957031 35.890625 -36.53125 C 35.296875 -37.113281 34.195312 -37.425781 32.59375 -37.46875 L 31.1875 -37.46875 L 31.1875 -38.46875 L 45.359375 -38.46875 L 45.359375 -37.46875 L 44.1875 -37.46875 C 42.6875 -37.46875 41.617188 -37.375 40.984375 -37.1875 C 40.359375 -37 39.921875 -36.554688 39.671875 -35.859375 C 39.429688 -35.171875 39.3125 -34.046875 39.3125 -32.484375 L 39.3125 0.453125 L 38.53125 0.453125 L 11.03125 -30.515625 L 11.03125 -6.5 C 11.03125 -4.40625 11.445312 -2.96875 12.28125 -2.1875 C 13.125 -1.40625 14.570312 -1.015625 16.625 -1.015625 L 16.625 0 L 2.75 0 L 2.75 -1.015625 L 3.078125 -1.015625 C 4.867188 -1.015625 6.226562 -1.335938 7.15625 -1.984375 C 8.09375 -2.640625 8.5625 -3.84375 8.5625 -5.59375 L 8.5625 -32.984375 C 7.59375 -34.628906 6.492188 -35.785156 5.265625 -36.453125 C 4.035156 -37.128906 2.523438 -37.46875 0.734375 -37.46875 L 0.734375 -38.46875 L 11.921875 -38.46875 Z M 36.796875 -10.078125 "/></g></g></g><g fill="#022179" fill-opacity="1"><g transform="translate(326.808954, 201.749987)"><g><path d="M 43.796875 -19.265625 C 43.796875 -15.421875 42.796875 -12.039062 40.796875 -9.125 C 38.796875 -6.21875 36.097656 -3.96875 32.703125 -2.375 C 29.304688 -0.789062 25.59375 0 21.5625 0 L 1.796875 0 L 1.796875 -1.015625 C 3.804688 -1.046875 5.25 -1.378906 6.125 -2.015625 C 7.007812 -2.648438 7.453125 -3.863281 7.453125 -5.65625 L 7.453125 -32.921875 C 7.453125 -34.710938 6.984375 -35.914062 6.046875 -36.53125 C 5.109375 -37.15625 3.691406 -37.46875 1.796875 -37.46875 L 1.796875 -38.46875 L 23.234375 -38.46875 C 27.535156 -38.46875 31.242188 -37.550781 34.359375 -35.71875 C 37.472656 -33.894531 39.820312 -31.515625 41.40625 -28.578125 C 43 -25.648438 43.796875 -22.546875 43.796875 -19.265625 Z M 13.5 -35.390625 L 13.5 -2.796875 C 15.363281 -2.234375 17.378906 -1.953125 19.546875 -1.953125 C 22.984375 -1.953125 26.003906 -2.648438 28.609375 -4.046875 C 31.222656 -5.453125 33.238281 -7.441406 34.65625 -10.015625 C 36.082031 -12.597656 36.796875 -15.566406 36.796875 -18.921875 C 36.796875 -22.285156 36.082031 -25.28125 34.65625 -27.90625 C 33.238281 -30.539062 31.234375 -32.601562 28.640625 -34.09375 C 26.046875 -35.59375 23.070312 -36.34375 19.71875 -36.34375 C 17.476562 -36.34375 15.40625 -36.023438 13.5 -35.390625 Z M 13.5 -35.390625 "/></g></g></g><g fill="#1743c0" fill-opacity="1"><g transform="translate(7.24073, 224.649976)"><g><path d="M 2.25 0 L 0.15625 -7.53125 L 1.265625 -7.53125 L 2.515625 -2.765625 C 2.546875 -2.628906 2.578125 -2.472656 2.609375 -2.296875 C 2.640625 -2.128906 2.722656 -1.691406 2.859375 -0.984375 C 3.003906 -1.710938 3.09375 -2.160156 3.125 -2.328125 C 3.164062 -2.492188 3.203125 -2.640625 3.234375 -2.765625 L 4.609375 -7.53125 L 5.671875 -7.53125 L 7.0625 -2.765625 C 7.09375 -2.640625 7.125 -2.492188 7.15625 -2.328125 C 7.195312 -2.171875 7.289062 -1.734375 7.4375 -1.015625 C 7.53125 -1.492188 7.601562 -1.878906 7.65625 -2.171875 C 7.71875 -2.460938 7.757812 -2.660156 7.78125 -2.765625 L 9.03125 -7.53125 L 10.09375 -7.53125 L 8 0 L 6.859375 0 L 5.640625 -4.03125 C 5.554688 -4.320312 5.472656 -4.632812 5.390625 -4.96875 C 5.304688 -5.3125 5.21875 -5.71875 5.125 -6.1875 C 5.03125 -5.71875 4.941406 -5.3125 4.859375 -4.96875 C 4.773438 -4.632812 4.691406 -4.320312 4.609375 -4.03125 L 3.40625 0 Z M 2.25 0 "/></g></g></g><g fill="#1743c0" fill-opacity="1"><g transform="translate(20.668753, 224.649976)"><g><path d="M 1.890625 0 L 0.859375 0 L 0.859375 -7.53125 L 1.890625 -7.53125 L 1.890625 -4.28125 L 5.8125 -4.28125 L 5.8125 -7.53125 L 6.84375 -7.53125 L 6.84375 0 L 5.8125 0 L 5.8125 -3.34375 L 1.890625 -3.34375 Z M 1.890625 0 "/></g></g></g><g fill="#1743c0" fill-opacity="1"><g transform="translate(31.552766, 224.649976)"><g><path d="M 5.859375 -0.953125 L 5.859375 0 L 0.859375 0 L 0.859375 -7.53125 L 5.75 -7.53125 L 5.75 -6.59375 L 1.890625 -6.59375 L 1.890625 -4.296875 L 5.296875 -4.296875 L 5.296875 -3.390625 L 1.890625 -3.390625 L 1.890625 -0.953125 Z M 5.859375 -0.953125 "/></g></g></g><g fill="#1743c0" fill-opacity="1"><g transform="translate(41.008776, 224.649976)"><g><path d="M 1.890625 -2.703125 L 1.890625 0 L 0.859375 0 L 0.859375 -7.53125 L 3.421875 -7.53125 C 4.484375 -7.53125 5.242188 -7.347656 5.703125 -6.984375 C 6.160156 -6.617188 6.390625 -6.015625 6.390625 -5.171875 C 6.390625 -4.515625 6.242188 -3.992188 5.953125 -3.609375 C 5.660156 -3.222656 5.21875 -2.957031 4.625 -2.8125 L 6.59375 0 L 5.375 0 L 3.546875 -2.703125 Z M 5.359375 -5.171875 C 5.359375 -5.679688 5.207031 -6.046875 4.90625 -6.265625 C 4.613281 -6.484375 4.117188 -6.59375 3.421875 -6.59375 L 1.890625 -6.59375 L 1.890625 -3.59375 L 3.421875 -3.59375 C 4.109375 -3.59375 4.601562 -3.71875 4.90625 -3.96875 C 5.207031 -4.21875 5.359375 -4.617188 5.359375 -5.171875 Z M 5.359375 -5.171875 "/></g></g></g><g fill="#1743c0" fill-opacity="1"><g transform="translate(51.136791, 224.649976)"><g><path d="M 5.859375 -0.953125 L 5.859375 0 L 0.859375 0 L 0.859375 -7.53125 L 5.75 -7.53125 L 5.75 -6.59375 L 1.890625 -6.59375 L 1.890625 -4.296875 L 5.296875 -4.296875 L 5.296875 -3.390625 L 1.890625 -3.390625 L 1.890625 -0.953125 Z M 5.859375 -0.953125 "/></g></g></g><g fill="#1743c0" fill-opacity="1"><g transform="translate(60.592797, 224.649976)"><g/></g></g><g fill="#1743c0" fill-opacity="1"><g transform="translate(65.824801, 224.649976)"><g><path d="M 1.890625 -7.53125 L 1.890625 0 L 0.859375 0 L 0.859375 -7.53125 Z M 1.890625 -7.53125 "/></g></g></g><g fill="#1743c0" fill-opacity="1"><g transform="translate(71.7528, 224.649976)"><g><path d="M 7.015625 -7.53125 L 7.015625 0 L 5.984375 0 L 1.828125 -5.859375 L 1.828125 0 L 0.859375 0 L 0.859375 -7.53125 L 1.890625 -7.53125 L 6.0625 -1.578125 L 6.0625 -7.53125 Z M 7.015625 -7.53125 "/></g></g></g><g fill="#1743c0" fill-opacity="1"><g transform="translate(82.816815, 224.649976)"><g><path d="M 1.890625 -3.09375 L 1.890625 0 L 0.859375 0 L 0.859375 -7.53125 L 5.6875 -7.53125 L 5.6875 -6.59375 L 1.890625 -6.59375 L 1.890625 -4 L 5.25 -4 L 5.25 -3.09375 Z M 1.890625 -3.09375 "/></g></g></g><g fill="#1743c0" fill-opacity="1"><g transform="translate(91.972826, 224.649976)"><g><path d="M 1.890625 -2.703125 L 1.890625 0 L 0.859375 0 L 0.859375 -7.53125 L 3.421875 -7.53125 C 4.484375 -7.53125 5.242188 -7.347656 5.703125 -6.984375 C 6.160156 -6.617188 6.390625 -6.015625 6.390625 -5.171875 C 6.390625 -4.515625 6.242188 -3.992188 5.953125 -3.609375 C 5.660156 -3.222656 5.21875 -2.957031 4.625 -2.8125 L 6.59375 0 L 5.375 0 L 3.546875 -2.703125 Z M 5.359375 -5.171875 C 5.359375 -5.679688 5.207031 -6.046875 4.90625 -6.265625 C 4.613281 -6.484375 4.117188 -6.59375 3.421875 -6.59375 L 1.890625 -6.59375 L 1.890625 -3.59375 L 3.421875 -3.59375 C 4.109375 -3.59375 4.601562 -3.71875 4.90625 -3.96875 C 5.207031 -4.21875 5.359375 -4.617188 5.359375 -5.171875 Z M 5.359375 -5.171875 "/></g></g></g><g fill="#1743c0" fill-opacity="1"><g transform="translate(102.100841, 224.649976)"><g><path d="M 1.171875 0 L 0.09375 0 L 3.078125 -7.53125 L 4.125 -7.53125 L 7.0625 0 L 5.984375 0 L 5.296875 -1.8125 L 1.859375 -1.8125 Z M 3.578125 -6.59375 C 3.492188 -6.3125 3.394531 -6.015625 3.28125 -5.703125 C 3.175781 -5.390625 3.070312 -5.078125 2.96875 -4.765625 L 2.203125 -2.71875 L 4.96875 -2.71875 L 4.203125 -4.765625 C 4.035156 -5.203125 3.90625 -5.554688 3.8125 -5.828125 C 3.726562 -6.097656 3.648438 -6.351562 3.578125 -6.59375 Z M 3.578125 -6.59375 "/></g></g></g><g fill="#1743c0" fill-opacity="1"><g transform="translate(112.456857, 224.649976)"><g><path d="M 3.765625 -3.15625 L 1.9375 -3.59375 C 1.4375 -3.707031 1.070312 -3.910156 0.84375 -4.203125 C 0.625 -4.492188 0.515625 -4.898438 0.515625 -5.421875 C 0.515625 -6.179688 0.734375 -6.738281 1.171875 -7.09375 C 1.609375 -7.457031 2.285156 -7.640625 3.203125 -7.640625 C 3.585938 -7.640625 3.929688 -7.617188 4.234375 -7.578125 C 4.546875 -7.546875 4.832031 -7.492188 5.09375 -7.421875 L 5.09375 -6.5 C 4.757812 -6.582031 4.441406 -6.640625 4.140625 -6.671875 C 3.835938 -6.703125 3.519531 -6.71875 3.1875 -6.71875 C 2.570312 -6.71875 2.140625 -6.628906 1.890625 -6.453125 C 1.648438 -6.273438 1.53125 -5.957031 1.53125 -5.5 C 1.53125 -5.207031 1.585938 -4.988281 1.703125 -4.84375 C 1.816406 -4.695312 2.003906 -4.59375 2.265625 -4.53125 L 4.078125 -4.09375 C 4.722656 -3.9375 5.148438 -3.71875 5.359375 -3.4375 C 5.566406 -3.164062 5.671875 -2.742188 5.671875 -2.171875 C 5.671875 -1.347656 5.457031 -0.765625 5.03125 -0.421875 C 4.601562 -0.078125 3.925781 0.09375 3 0.09375 C 2.507812 0.09375 2.035156 0.0625 1.578125 0 C 1.128906 -0.0625 0.773438 -0.144531 0.515625 -0.25 L 0.515625 -1.21875 C 0.890625 -1.101562 1.289062 -1.015625 1.71875 -0.953125 C 2.144531 -0.890625 2.570312 -0.859375 3 -0.859375 C 3.601562 -0.859375 4.023438 -0.945312 4.265625 -1.125 C 4.503906 -1.300781 4.625 -1.640625 4.625 -2.140625 C 4.625 -2.453125 4.5625 -2.675781 4.4375 -2.8125 C 4.320312 -2.957031 4.097656 -3.070312 3.765625 -3.15625 Z M 3.765625 -3.15625 "/></g></g></g><g fill="#1743c0" fill-opacity="1"><g transform="translate(121.684868, 224.649976)"><g><path d="M 6.1875 -7.53125 L 6.1875 -6.59375 L 3.703125 -6.59375 L 3.703125 0 L 2.671875 0 L 2.671875 -6.59375 L 0.1875 -6.59375 L 0.1875 -7.53125 Z M 6.1875 -7.53125 "/></g></g></g><g fill="#1743c0" fill-opacity="1"><g transform="translate(131.236885, 224.649976)"><g><path d="M 1.890625 -2.703125 L 1.890625 0 L 0.859375 0 L 0.859375 -7.53125 L 3.421875 -7.53125 C 4.484375 -7.53125 5.242188 -7.347656 5.703125 -6.984375 C 6.160156 -6.617188 6.390625 -6.015625 6.390625 -5.171875 C 6.390625 -4.515625 6.242188 -3.992188 5.953125 -3.609375 C 5.660156 -3.222656 5.21875 -2.957031 4.625 -2.8125 L 6.59375 0 L 5.375 0 L 3.546875 -2.703125 Z M 5.359375 -5.171875 C 5.359375 -5.679688 5.207031 -6.046875 4.90625 -6.265625 C 4.613281 -6.484375 4.117188 -6.59375 3.421875 -6.59375 L 1.890625 -6.59375 L 1.890625 -3.59375 L 3.421875 -3.59375 C 4.109375 -3.59375 4.601562 -3.71875 4.90625 -3.96875 C 5.207031 -4.21875 5.359375 -4.617188 5.359375 -5.171875 Z M 5.359375 -5.171875 "/></g></g></g><g fill="#1743c0" fill-opacity="1"><g transform="translate(141.364905, 224.649976)"><g><path d="M 5.78125 -3 L 5.78125 -7.53125 L 6.796875 -7.53125 L 6.796875 -3 C 6.796875 -1.945312 6.550781 -1.164062 6.0625 -0.65625 C 5.570312 -0.15625 4.8125 0.09375 3.78125 0.09375 C 2.738281 0.09375 1.976562 -0.148438 1.5 -0.640625 C 1.03125 -1.128906 0.796875 -1.914062 0.796875 -3 L 0.796875 -7.53125 L 1.8125 -7.53125 L 1.8125 -3 C 1.8125 -2.207031 1.957031 -1.648438 2.25 -1.328125 C 2.539062 -1.015625 3.050781 -0.859375 3.78125 -0.859375 C 4.519531 -0.859375 5.035156 -1.015625 5.328125 -1.328125 C 5.628906 -1.648438 5.78125 -2.207031 5.78125 -3 Z M 5.78125 -3 "/></g></g></g><g fill="#1743c0" fill-opacity="1"><g transform="translate(152.140925, 224.649976)"><g><path d="M 3.859375 -0.859375 C 4.179688 -0.859375 4.523438 -0.894531 4.890625 -0.96875 C 5.253906 -1.050781 5.59375 -1.15625 5.90625 -1.28125 L 5.90625 -0.375 C 5.46875 -0.195312 5.078125 -0.0703125 4.734375 0 C 4.390625 0.0625 4.035156 0.09375 3.671875 0.09375 C 2.515625 0.09375 1.703125 -0.203125 1.234375 -0.796875 C 0.765625 -1.390625 0.53125 -2.382812 0.53125 -3.78125 C 0.53125 -5.113281 0.800781 -6.085938 1.34375 -6.703125 C 1.894531 -7.328125 2.769531 -7.640625 3.96875 -7.640625 C 4.34375 -7.640625 4.671875 -7.628906 4.953125 -7.609375 C 5.242188 -7.597656 5.503906 -7.570312 5.734375 -7.53125 L 5.734375 -6.640625 C 5.453125 -6.671875 5.171875 -6.691406 4.890625 -6.703125 C 4.609375 -6.710938 4.300781 -6.71875 3.96875 -6.71875 C 3.070312 -6.71875 2.445312 -6.492188 2.09375 -6.046875 C 1.75 -5.609375 1.578125 -4.851562 1.578125 -3.78125 C 1.578125 -2.6875 1.734375 -1.925781 2.046875 -1.5 C 2.367188 -1.070312 2.972656 -0.859375 3.859375 -0.859375 Z M 3.859375 -0.859375 "/></g></g></g><g fill="#1743c0" fill-opacity="1"><g transform="translate(161.536935, 224.649976)"><g><path d="M 6.1875 -7.53125 L 6.1875 -6.59375 L 3.703125 -6.59375 L 3.703125 0 L 2.671875 0 L 2.671875 -6.59375 L 0.1875 -6.59375 L 0.1875 -7.53125 Z M 6.1875 -7.53125 "/></g></g></g><g fill="#1743c0" fill-opacity="1"><g transform="translate(171.088952, 224.649976)"><g><path d="M 5.78125 -3 L 5.78125 -7.53125 L 6.796875 -7.53125 L 6.796875 -3 C 6.796875 -1.945312 6.550781 -1.164062 6.0625 -0.65625 C 5.570312 -0.15625 4.8125 0.09375 3.78125 0.09375 C 2.738281 0.09375 1.976562 -0.148438 1.5 -0.640625 C 1.03125 -1.128906 0.796875 -1.914062 0.796875 -3 L 0.796875 -7.53125 L 1.8125 -7.53125 L 1.8125 -3 C 1.8125 -2.207031 1.957031 -1.648438 2.25 -1.328125 C 2.539062 -1.015625 3.050781 -0.859375 3.78125 -0.859375 C 4.519531 -0.859375 5.035156 -1.015625 5.328125 -1.328125 C 5.628906 -1.648438 5.78125 -2.207031 5.78125 -3 Z M 5.78125 -3 "/></g></g></g><g fill="#1743c0" fill-opacity="1"><g transform="translate(181.864971, 224.649976)"><g><path d="M 1.890625 -2.703125 L 1.890625 0 L 0.859375 0 L 0.859375 -7.53125 L 3.421875 -7.53125 C 4.484375 -7.53125 5.242188 -7.347656 5.703125 -6.984375 C 6.160156 -6.617188 6.390625 -6.015625 6.390625 -5.171875 C 6.390625 -4.515625 6.242188 -3.992188 5.953125 -3.609375 C 5.660156 -3.222656 5.21875 -2.957031 4.625 -2.8125 L 6.59375 0 L 5.375 0 L 3.546875 -2.703125 Z M 5.359375 -5.171875 C 5.359375 -5.679688 5.207031 -6.046875 4.90625 -6.265625 C 4.613281 -6.484375 4.117188 -6.59375 3.421875 -6.59375 L 1.890625 -6.59375 L 1.890625 -3.59375 L 3.421875 -3.59375 C 4.109375 -3.59375 4.601562 -3.71875 4.90625 -3.96875 C 5.207031 -4.21875 5.359375 -4.617188 5.359375 -5.171875 Z M 5.359375 -5.171875 "/></g></g></g><g fill="#1743c0" fill-opacity="1"><g transform="translate(191.992992, 224.649976)"><g><path d="M 5.859375 -0.953125 L 5.859375 0 L 0.859375 0 L 0.859375 -7.53125 L 5.75 -7.53125 L 5.75 -6.59375 L 1.890625 -6.59375 L 1.890625 -4.296875 L 5.296875 -4.296875 L 5.296875 -3.390625 L 1.890625 -3.390625 L 1.890625 -0.953125 Z M 5.859375 -0.953125 "/></g></g></g><g fill="#1743c0" fill-opacity="1"><g transform="translate(201.448992, 224.649976)"><g/></g></g><g fill="#1743c0" fill-opacity="1"><g transform="translate(206.681002, 224.649976)"><g><path d="M 7.953125 -7.53125 L 7.953125 0 L 7 0 L 7 -5.921875 L 4.84375 -1.5 L 3.96875 -1.5 L 1.828125 -5.9375 L 1.828125 0 L 0.859375 0 L 0.859375 -7.53125 L 2.140625 -7.53125 L 4.421875 -2.734375 L 6.71875 -7.53125 Z M 7.953125 -7.53125 "/></g></g></g><g fill="#1743c0" fill-opacity="1"><g transform="translate(218.681024, 224.649976)"><g><path d="M 5.859375 -0.953125 L 5.859375 0 L 0.859375 0 L 0.859375 -7.53125 L 5.75 -7.53125 L 5.75 -6.59375 L 1.890625 -6.59375 L 1.890625 -4.296875 L 5.296875 -4.296875 L 5.296875 -3.390625 L 1.890625 -3.390625 L 1.890625 -0.953125 Z M 5.859375 -0.953125 "/></g></g></g><g fill="#1743c0" fill-opacity="1"><g transform="translate(228.137025, 224.649976)"><g><path d="M 5.859375 -0.953125 L 5.859375 0 L 0.859375 0 L 0.859375 -7.53125 L 5.75 -7.53125 L 5.75 -6.59375 L 1.890625 -6.59375 L 1.890625 -4.296875 L 5.296875 -4.296875 L 5.296875 -3.390625 L 1.890625 -3.390625 L 1.890625 -0.953125 Z M 5.859375 -0.953125 "/></g></g></g><g fill="#1743c0" fill-opacity="1"><g transform="translate(237.593025, 224.649976)"><g><path d="M 6.1875 -7.53125 L 6.1875 -6.59375 L 3.703125 -6.59375 L 3.703125 0 L 2.671875 0 L 2.671875 -6.59375 L 0.1875 -6.59375 L 0.1875 -7.53125 Z M 6.1875 -7.53125 "/></g></g></g><g fill="#1743c0" fill-opacity="1"><g transform="translate(247.145042, 224.649976)"><g><path d="M 3.765625 -3.15625 L 1.9375 -3.59375 C 1.4375 -3.707031 1.070312 -3.910156 0.84375 -4.203125 C 0.625 -4.492188 0.515625 -4.898438 0.515625 -5.421875 C 0.515625 -6.179688 0.734375 -6.738281 1.171875 -7.09375 C 1.609375 -7.457031 2.285156 -7.640625 3.203125 -7.640625 C 3.585938 -7.640625 3.929688 -7.617188 4.234375 -7.578125 C 4.546875 -7.546875 4.832031 -7.492188 5.09375 -7.421875 L 5.09375 -6.5 C 4.757812 -6.582031 4.441406 -6.640625 4.140625 -6.671875 C 3.835938 -6.703125 3.519531 -6.71875 3.1875 -6.71875 C 2.570312 -6.71875 2.140625 -6.628906 1.890625 -6.453125 C 1.648438 -6.273438 1.53125 -5.957031 1.53125 -5.5 C 1.53125 -5.207031 1.585938 -4.988281 1.703125 -4.84375 C 1.816406 -4.695312 2.003906 -4.59375 2.265625 -4.53125 L 4.078125 -4.09375 C 4.722656 -3.9375 5.148438 -3.71875 5.359375 -3.4375 C 5.566406 -3.164062 5.671875 -2.742188 5.671875 -2.171875 C 5.671875 -1.347656 5.457031 -0.765625 5.03125 -0.421875 C 4.601562 -0.078125 3.925781 0.09375 3 0.09375 C 2.507812 0.09375 2.035156 0.0625 1.578125 0 C 1.128906 -0.0625 0.773438 -0.144531 0.515625 -0.25 L 0.515625 -1.21875 C 0.890625 -1.101562 1.289062 -1.015625 1.71875 -0.953125 C 2.144531 -0.890625 2.570312 -0.859375 3 -0.859375 C 3.601562 -0.859375 4.023438 -0.945312 4.265625 -1.125 C 4.503906 -1.300781 4.625 -1.640625 4.625 -2.140625 C 4.625 -2.453125 4.5625 -2.675781 4.4375 -2.8125 C 4.320312 -2.957031 4.097656 -3.070312 3.765625 -3.15625 Z M 3.765625 -3.15625 "/></g></g></g><g fill="#1743c0" fill-opacity="1"><g transform="translate(256.373053, 224.649976)"><g/></g></g><g fill="#1743c0" fill-opacity="1"><g transform="translate(261.605063, 224.649976)"><g><path d="M 1.890625 -7.53125 L 1.890625 0 L 0.859375 0 L 0.859375 -7.53125 Z M 1.890625 -7.53125 "/></g></g></g><g fill="#1743c0" fill-opacity="1"><g transform="translate(267.533056, 224.649976)"><g><path d="M 7.015625 -7.53125 L 7.015625 0 L 5.984375 0 L 1.828125 -5.859375 L 1.828125 0 L 0.859375 0 L 0.859375 -7.53125 L 1.890625 -7.53125 L 6.0625 -1.578125 L 6.0625 -7.53125 Z M 7.015625 -7.53125 "/></g></g></g><g fill="#1743c0" fill-opacity="1"><g transform="translate(278.597066, 224.649976)"><g><path d="M 6.1875 -7.53125 L 6.1875 -6.59375 L 3.703125 -6.59375 L 3.703125 0 L 2.671875 0 L 2.671875 -6.59375 L 0.1875 -6.59375 L 0.1875 -7.53125 Z M 6.1875 -7.53125 "/></g></g></g><g fill="#1743c0" fill-opacity="1"><g transform="translate(288.149083, 224.649976)"><g><path d="M 5.859375 -0.953125 L 5.859375 0 L 0.859375 0 L 0.859375 -7.53125 L 5.75 -7.53125 L 5.75 -6.59375 L 1.890625 -6.59375 L 1.890625 -4.296875 L 5.296875 -4.296875 L 5.296875 -3.390625 L 1.890625 -3.390625 L 1.890625 -0.953125 Z M 5.859375 -0.953125 "/></g></g></g><g fill="#1743c0" fill-opacity="1"><g transform="translate(297.605083, 224.649976)"><g><path d="M 5.46875 -0.953125 L 5.46875 0 L 0.859375 0 L 0.859375 -7.53125 L 1.890625 -7.53125 L 1.890625 -0.953125 Z M 5.46875 -0.953125 "/></g></g></g><g fill="#1743c0" fill-opacity="1"><g transform="translate(306.4491, 224.649976)"><g><path d="M 5.46875 -0.953125 L 5.46875 0 L 0.859375 0 L 0.859375 -7.53125 L 1.890625 -7.53125 L 1.890625 -0.953125 Z M 5.46875 -0.953125 "/></g></g></g><g fill="#1743c0" fill-opacity="1"><g transform="translate(315.293116, 224.649976)"><g><path d="M 1.890625 -7.53125 L 1.890625 0 L 0.859375 0 L 0.859375 -7.53125 Z M 1.890625 -7.53125 "/></g></g></g><g fill="#1743c0" fill-opacity="1"><g transform="translate(321.22111, 224.649976)"><g><path d="M 5.640625 -3.078125 L 3.6875 -3.078125 L 3.6875 -3.984375 L 6.59375 -3.984375 L 6.59375 -0.359375 C 6.375 -0.253906 5.972656 -0.148438 5.390625 -0.046875 C 4.816406 0.046875 4.296875 0.09375 3.828125 0.09375 C 2.585938 0.09375 1.726562 -0.195312 1.25 -0.78125 C 0.78125 -1.363281 0.546875 -2.359375 0.546875 -3.765625 C 0.546875 -5.097656 0.828125 -6.078125 1.390625 -6.703125 C 1.960938 -7.328125 2.851562 -7.640625 4.0625 -7.640625 C 4.476562 -7.640625 4.875 -7.628906 5.25 -7.609375 C 5.632812 -7.585938 5.945312 -7.5625 6.1875 -7.53125 L 6.1875 -6.625 C 5.875 -6.65625 5.53125 -6.675781 5.15625 -6.6875 C 4.78125 -6.707031 4.414062 -6.71875 4.0625 -6.71875 C 3.15625 -6.71875 2.515625 -6.492188 2.140625 -6.046875 C 1.765625 -5.597656 1.578125 -4.835938 1.578125 -3.765625 C 1.578125 -3.234375 1.609375 -2.789062 1.671875 -2.4375 C 1.734375 -2.082031 1.832031 -1.796875 1.96875 -1.578125 C 2.125 -1.304688 2.347656 -1.113281 2.640625 -1 C 2.941406 -0.882812 3.378906 -0.828125 3.953125 -0.828125 C 4.171875 -0.828125 4.429688 -0.84375 4.734375 -0.875 C 5.046875 -0.914062 5.347656 -0.96875 5.640625 -1.03125 Z M 5.640625 -3.078125 "/></g></g></g><g fill="#1743c0" fill-opacity="1"><g transform="translate(331.553133, 224.649976)"><g><path d="M 5.859375 -0.953125 L 5.859375 0 L 0.859375 0 L 0.859375 -7.53125 L 5.75 -7.53125 L 5.75 -6.59375 L 1.890625 -6.59375 L 1.890625 -4.296875 L 5.296875 -4.296875 L 5.296875 -3.390625 L 1.890625 -3.390625 L 1.890625 -0.953125 Z M 5.859375 -0.953125 "/></g></g></g><g fill="#1743c0" fill-opacity="1"><g transform="translate(341.009133, 224.649976)"><g><path d="M 7.015625 -7.53125 L 7.015625 0 L 5.984375 0 L 1.828125 -5.859375 L 1.828125 0 L 0.859375 0 L 0.859375 -7.53125 L 1.890625 -7.53125 L 6.0625 -1.578125 L 6.0625 -7.53125 Z M 7.015625 -7.53125 "/></g></g></g><g fill="#1743c0" fill-opacity="1"><g transform="translate(352.073143, 224.649976)"><g><path d="M 3.859375 -0.859375 C 4.179688 -0.859375 4.523438 -0.894531 4.890625 -0.96875 C 5.253906 -1.050781 5.59375 -1.15625 5.90625 -1.28125 L 5.90625 -0.375 C 5.46875 -0.195312 5.078125 -0.0703125 4.734375 0 C 4.390625 0.0625 4.035156 0.09375 3.671875 0.09375 C 2.515625 0.09375 1.703125 -0.203125 1.234375 -0.796875 C 0.765625 -1.390625 0.53125 -2.382812 0.53125 -3.78125 C 0.53125 -5.113281 0.800781 -6.085938 1.34375 -6.703125 C 1.894531 -7.328125 2.769531 -7.640625 3.96875 -7.640625 C 4.34375 -7.640625 4.671875 -7.628906 4.953125 -7.609375 C 5.242188 -7.597656 5.503906 -7.570312 5.734375 -7.53125 L 5.734375 -6.640625 C 5.453125 -6.671875 5.171875 -6.691406 4.890625 -6.703125 C 4.609375 -6.710938 4.300781 -6.71875 3.96875 -6.71875 C 3.070312 -6.71875 2.445312 -6.492188 2.09375 -6.046875 C 1.75 -5.609375 1.578125 -4.851562 1.578125 -3.78125 C 1.578125 -2.6875 1.734375 -1.925781 2.046875 -1.5 C 2.367188 -1.070312 2.972656 -0.859375 3.859375 -0.859375 Z M 3.859375 -0.859375 "/></g></g></g><g fill="#1743c0" fill-opacity="1"><g transform="translate(361.469154, 224.649976)"><g><path d="M 5.859375 -0.953125 L 5.859375 0 L 0.859375 0 L 0.859375 -7.53125 L 5.75 -7.53125 L 5.75 -6.59375 L 1.890625 -6.59375 L 1.890625 -4.296875 L 5.296875 -4.296875 L 5.296875 -3.390625 L 1.890625 -3.390625 L 1.890625 -0.953125 Z M 5.859375 -0.953125 "/></g></g></g></svg>